<?xml version="1.0" encoding="UTF-8" standalone="no"?>
<svg
   width="2600.8301"
   height="882.37134"
   viewBox="0 0 2600.8301 882.37134"
   version="1.1"
   id="svg36"
   xmlns="http://www.w3.org/2000/svg"
   xmlns:svg="http://www.w3.org/2000/svg"
   xmlns:rdf="http://www.w3.org/1999/02/22-rdf-syntax-ns#"
   xmlns:cc="http://creativecommons.org/ns#"
   xmlns:dc="http://purl.org/dc/elements/1.1/">
  <!-- Generator: Sketch 48.2 (47327) - http://www.bohemiancoding.com/sketch -->
  <title
     id="title2">Artboard</title>
  <desc
     id="desc4">Created with Sketch.</desc>
  <defs
     id="defs7">
    <polygon
       id="path-1"
       points="5089.61,0.73 5089.61,1029 0.06,1029 0.06,0.73 " />
  </defs>
  <g
     id="Page-1"
     stroke="none"
     stroke-width="1"
     fill="none"
     fill-rule="evenodd"
     transform="translate(-1233.0078,-105.68331)">
    <g
       id="Artboard"
       transform="translate(1149.8042,-1406.9941)">
      <path
         d="m 2676.6436,1651.3856 h -406.32 c -7.38,0 -7.38,7.387 -7.38,7.387 v 90.719 c 0,8.46 7.38,8.46 7.38,8.46 h 137.17 c 8.44,0 8.44,7.387 8.44,7.387 v 490.682 c 0,8.479 8.46,8.479 8.46,8.479 0,0 91.83,0 98.18,0 7.43,0 9.5,-5.303 9.5,-9.512 0,-2.088 0,-489.649 0,-489.649 0,-7.387 8.44,-7.387 8.44,-7.387 h 136.13 c 7.39,0 7.39,-8.46 7.39,-8.46 v -90.719 c 0,-7.387 -7.39,-7.387 -7.39,-7.387"
         id="Fill-3-3"
         fill="#0f2230"
         mask="url(#mask-2)" />
      <path
         d="m 2060.3136,1651.3666 c -86.52,0 -175.2,0 -253.27,0 -7.37,0 -7.37,7.388 -7.37,7.388 0,583.563 0,597.286 0,597.286 0,8.479 7.37,8.479 7.37,8.479 0,0 92.89,0 101.33,0 7.37,0 8.42,-7.372 8.42,-7.372 v -215.328 c 0,-8.441 7.39,-8.441 7.39,-8.441 h 134.03 c 85.5,0 161.48,-72.803 161.48,-163.561 0,-8.459 0,-54.872 0,-54.872 0,-90.773 -73.89,-163.579 -159.38,-163.579 z m 42.22,228.997 c 0,24.286 -21.11,46.43 -46.45,46.43 h -131.9 c -8.44,0 -8.44,-8.44 -8.44,-8.44 v -153.015 c 0,-7.387 8.44,-7.387 8.44,-7.387 h 129.82 c 27.42,0 49.59,22.162 49.59,48.555 0,10.546 -1.06,61.205 -1.06,73.857 z"
         id="Fill-4-6"
         fill="#0f2230"
         mask="url(#mask-2)" />
      <path
         d="m 1725.7936,2317.2656 c 0,0 0,-109.78 0,-117.149 0,-6.336 -5.27,-9.455 -5.27,-9.455 l -45.38,-27.428 c 0,0 -4.23,-2.14 -4.23,-8.476 v -494.931 c 0,0 0,-8.441 -8.43,-8.441 h -102.38 c 0,0 -7.37,0 -7.37,8.441 v 489.667 c 0,0 0,7.35 -8.46,7.35 l -103.42,1.072 c -48.56,0 -76,-42.221 -77.05,-73.877 v -424.212 c 0,0 0,-8.441 -7.39,-8.441 h -102.34 c 0,0 -8.44,0 -8.44,8.441 v 441.11 c 0,94.95 78.05,163.563 164.59,163.563 0,0 202.67,0 206.88,0 4.25,0 6.31,1.053 6.31,1.053 l 96.08,55.941 c 0,0 1.03,1.053 3.12,1.053 0,0 3.18,0 3.18,-5.281"
         id="Fill-5-7"
         fill="#0f2230"
         mask="url(#mask-2)" />
      <path
         d="m 1014.6026,1636.3666 -212.02202,-123.296 c -3.252,-1.089 -6.467,0 -6.467,4.325 v 80.041 c 0,2.143 1.072,3.232 2.181,4.323 l 147.112,85.456 c 30.265,17.312 48.65,48.667 48.65,83.274 0,122.243 0,244.487 0,366.748 0,34.588 -18.385,65.944 -48.65,83.276 l -147.112,85.416 c -1.109,1.091 -2.181,2.22 -2.181,4.361 v 80.004 c 0,4.361 3.215,5.451 6.467,4.361 l 212.02202,-123.314 c 35.696,-20.565 57.352,-58.424 57.352,-99.516 0,-144.969 0,-290.993 0,-435.943 0,-41.091 -21.656,-78.97 -57.352,-99.516"
         id="Fill-6-5"
         fill="#0f2230"
         mask="url(#mask-2)" />
      <path
         d="m 140.55558,1636.3666 212.022,-123.296 c 3.252,-1.089 6.466,0 6.466,4.325 v 80.041 c 0,2.143 -1.07,3.232 -2.18,4.323 l -147.113,85.456 c -30.265,17.312 -48.648,48.667 -48.648,83.274 0,122.243 0,244.487 0,366.748 0,34.588 18.383,65.944 48.648,83.276 l 147.113,85.416 c 1.11,1.091 2.18,2.22 2.18,4.361 v 80.004 c 0,4.361 -3.214,5.451 -6.466,4.361 l -212.022,-123.314 c -35.697,-20.565 -57.351998,-58.424 -57.351998,-99.516 0,-144.969 0,-290.993 0,-435.943 0,-41.091 21.654998,-78.97 57.351998,-99.516"
         id="Fill-8-3"
         fill="#0f2230"
         mask="url(#mask-2)" />
      <path
         d="m 549.22258,2192.3336 -165.497,-95.191 c -16.241,-8.649 -24.907,-25.942 -24.907,-43.237 0,-32.051 0,-64.082 0,-96.133 0,-32.049 0,-64.082 0,-96.132 0,-17.295 8.666,-34.588 24.907,-43.235 l 165.497,-95.193 c 3.42,-2.181 3.271,-5.413 0,-7.594 l -81.133,-46.506 -30.301,-17.293 c -2.143,-1.091 -3.233,0 -5.414,0 l -153.579,89.778 c -24.907,14.06 -40.002,40.04 -40.002,68.161 0,49.157 0,98.576 0,148.014 0,49.44 0,98.86 0,148.016 0,28.121 15.095,54.1 40.002,68.162 l 153.579,89.778 c 2.181,0 3.271,1.089 5.414,0 l 30.301,-17.295 81.133,-46.506 c 3.271,-2.18 3.42,-5.414 0,-7.594"
         id="Fill-9-5"
         fill="#199096"
         mask="url(#mask-2)" />
      <path
         d="m 604.95758,2192.3336 165.497,-95.191 c 16.243,-8.649 24.908,-25.942 24.908,-43.237 0,-32.051 0,-64.082 0,-96.133 0,-32.049 0,-64.082 0,-96.132 0,-17.295 -8.665,-34.588 -24.908,-43.235 l -165.497,-95.193 c -3.421,-2.181 -3.271,-5.413 0,-7.594 l 81.133,-46.506 30.302,-17.293 c 2.143,-1.091 3.233,0 5.414,0 l 153.578,89.778 c 24.907,14.06 40.002,40.04 40.002,68.161 0,49.157 0,98.576 0,148.014 0,49.44 0,98.86 0,148.016 0,28.121 -15.095,54.1 -40.002,68.162 l -153.578,89.778 c -2.181,0 -3.271,1.089 -5.414,0 l -30.302,-17.295 -81.133,-46.506 c -3.271,-2.18 -3.421,-5.414 0,-7.594"
         id="Fill-10-6"
         fill="#199096"
         mask="url(#mask-2)" />
    </g>
  </g>
  <metadata
     id="metadata2337">
    <rdf:RDF>
      <cc:Work
         rdf:about="">
        <dc:title>Artboard</dc:title>
      </cc:Work>
    </rdf:RDF>
  </metadata>
</svg>
