<?xml version="1.0" encoding="UTF-8"?>
<svg width="5090px" height="1029px" viewBox="0 0 5090 1029" version="1.1" xmlns="http://www.w3.org/2000/svg" xmlns:xlink="http://www.w3.org/1999/xlink"><!-- Generator: Sketch 48.2 (47327) - http://www.bohemiancoding.com/sketch --><title>Artboard</title><desc>Created with Sketch.</desc><defs><polygon id="path-1" points="0.06 0.73 5089.61 0.73 5089.61 1029 0.06 1029"></polygon></defs><g id="Page-1" stroke="none" stroke-width="1" fill="none" fill-rule="evenodd"><g id="Artboard"><g id="STCGroup_rus_RGB"><g id="Clip-2"></g><path d="M3016.99,1029 C3009.02,1029 3002.55,1022.53 3002.55,1014.56 L3002.55,15.167 C3002.55,7.197 3009.02,0.73 3016.99,0.73 C3024.96,0.73 3031.43,7.197 3031.43,15.167 L3031.43,1014.56 C3031.43,1022.53 3024.96,1029 3016.99,1029" id="Fill-1" fill="#0F2230" mask="url(#mask-2)"></path><path d="M2713.44,212.262 L2307.12,212.262 C2299.74,212.262 2299.74,219.649 2299.74,219.649 L2299.74,310.368 C2299.74,318.828 2307.12,318.828 2307.12,318.828 L2444.29,318.828 C2452.73,318.828 2452.73,326.215 2452.73,326.215 L2452.73,816.897 C2452.73,825.376 2461.19,825.376 2461.19,825.376 C2461.19,825.376 2553.02,825.376 2559.37,825.376 C2566.8,825.376 2568.87,820.073 2568.87,815.864 C2568.87,813.776 2568.87,326.215 2568.87,326.215 C2568.87,318.828 2577.31,318.828 2577.31,318.828 L2713.44,318.828 C2720.83,318.828 2720.83,310.368 2720.83,310.368 L2720.83,219.649 C2720.83,212.262 2713.44,212.262 2713.44,212.262" id="Fill-3" fill="#0F2230" mask="url(#mask-2)"></path><path d="M2097.11,212.243 C2010.59,212.243 1921.91,212.243 1843.84,212.243 C1836.47,212.243 1836.47,219.631 1836.47,219.631 C1836.47,803.194 1836.47,816.917 1836.47,816.917 C1836.47,825.396 1843.84,825.396 1843.84,825.396 C1843.84,825.396 1936.73,825.396 1945.17,825.396 C1952.54,825.396 1953.59,818.024 1953.59,818.024 L1953.59,602.696 C1953.59,594.255 1960.98,594.255 1960.98,594.255 L2095.01,594.255 C2180.51,594.255 2256.49,521.452 2256.49,430.694 C2256.49,422.235 2256.49,375.822 2256.49,375.822 C2256.49,285.049 2182.6,212.243 2097.11,212.243 Z M2139.33,441.24 C2139.33,465.526 2118.22,487.67 2092.88,487.67 L1960.98,487.67 C1952.54,487.67 1952.54,479.23 1952.54,479.23 L1952.54,326.215 C1952.54,318.828 1960.98,318.828 1960.98,318.828 L2090.8,318.828 C2118.22,318.828 2140.39,340.99 2140.39,367.383 C2140.39,377.929 2139.33,428.588 2139.33,441.24 Z" id="Fill-4" fill="#0F2230" mask="url(#mask-2)"></path><path d="M1762.59,878.142 C1762.59,878.142 1762.59,768.362 1762.59,760.993 C1762.59,754.657 1757.32,751.538 1757.32,751.538 L1711.94,724.11 C1711.94,724.11 1707.71,721.97 1707.71,715.634 L1707.71,220.703 C1707.71,220.703 1707.71,212.262 1699.28,212.262 L1596.9,212.262 C1596.9,212.262 1589.53,212.262 1589.53,220.703 L1589.53,710.37 C1589.53,710.37 1589.53,717.72 1581.07,717.72 L1477.65,718.792 C1429.09,718.792 1401.65,676.571 1400.6,644.915 L1400.6,220.703 C1400.6,220.703 1400.6,212.262 1393.21,212.262 L1290.87,212.262 C1290.87,212.262 1282.43,212.262 1282.43,220.703 L1282.43,661.813 C1282.43,756.763 1360.48,825.376 1447.02,825.376 C1447.02,825.376 1649.69,825.376 1653.9,825.376 C1658.15,825.376 1660.21,826.429 1660.21,826.429 L1756.29,882.37 C1756.29,882.37 1757.32,883.423 1759.41,883.423 C1759.41,883.423 1762.59,883.423 1762.59,878.142" id="Fill-5" fill="#0F2230" mask="url(#mask-2)"></path><path d="M931.399,197.243 L719.377,73.947 C716.125,72.858 712.91,73.947 712.91,78.272 L712.91,158.313 C712.91,160.456 713.982,161.545 715.091,162.636 L862.203,248.092 C892.468,265.404 910.853,296.759 910.853,331.366 C910.853,453.609 910.853,575.853 910.853,698.114 C910.853,732.702 892.468,764.058 862.203,781.39 L715.091,866.806 C713.982,867.897 712.91,869.026 712.91,871.167 L712.91,951.171 C712.91,955.532 716.125,956.622 719.377,955.532 L931.399,832.218 C967.095,811.653 988.751,773.794 988.751,732.702 C988.751,587.733 988.751,441.709 988.751,296.759 C988.751,255.668 967.095,217.789 931.399,197.243" id="Fill-6" fill="#0F2230" mask="url(#mask-2)"></path><path d="M942.414,989.726 L950.685,989.726 C953.994,989.726 956.513,989.726 958.148,988.054 C958.976,987.208 959.784,985.552 959.784,983.899 C959.784,983.091 959.784,981.435 958.976,980.608 C958.148,979.782 957.321,978.974 956.513,978.974 C954.802,978.108 953.148,978.108 949.858,978.108 L942.414,978.108 L942.414,989.726 Z M936.662,1012.04 L936.662,973.165 L949.858,973.165 C954.802,973.165 958.148,973.165 959.784,973.954 C962.283,974.8 963.9,975.628 964.747,978.108 C966.419,979.782 966.419,981.435 966.419,983.899 C966.419,986.399 965.555,988.899 963.9,991.38 C961.419,993.015 958.976,994.651 955.648,994.651 C956.513,995.497 958.148,995.497 958.976,996.323 C960.592,997.96 962.283,1000.46 964.747,1004.59 L969.728,1012.04 L961.419,1012.04 L958.148,1006.29 C955.648,1001.29 953.148,997.96 951.512,997.114 C950.685,995.497 949.031,995.497 946.531,995.497 L942.414,995.497 L942.414,1012.04 L936.662,1012.04 Z M952.34,961.548 C947.415,961.548 942.414,963.183 937.433,965.72 C932.489,968.202 928.335,971.528 925.872,976.454 C923.391,981.435 921.699,986.399 921.699,992.188 C921.699,997.114 923.391,1002.11 925.872,1007.09 C928.335,1012.04 932.489,1015.37 937.433,1018.66 C942.414,1021.16 947.415,1022.81 952.34,1022.81 C957.321,1022.81 962.283,1021.16 967.246,1018.66 C972.19,1015.37 976.345,1012.04 978.826,1007.09 C981.307,1002.11 982.961,997.114 982.961,992.188 C982.961,986.399 981.307,981.435 978.826,976.454 C976.345,971.528 972.19,968.202 967.246,965.72 C962.283,963.183 957.321,961.548 952.34,961.548 Z M952.34,955.776 C958.148,955.776 964.747,957.433 970.536,959.874 C976.345,963.183 980.499,968.202 983.789,973.954 C987.098,979.782 988.751,985.552 988.751,992.188 C988.751,997.96 987.098,1004.59 983.789,1010.4 C980.499,1016.21 976.345,1020.33 970.536,1023.64 C964.747,1026.95 958.976,1028.62 952.34,1028.62 C945.704,1028.62 939.914,1026.95 934.143,1023.64 C928.335,1020.33 924.218,1016.21 920.891,1010.4 C917.582,1004.59 915.91,997.96 915.91,992.188 C915.91,985.552 917.582,979.782 920.891,973.954 C924.218,968.202 928.335,963.183 934.143,959.874 C939.914,957.433 946.531,955.776 952.34,955.776 Z" id="Fill-7" fill="#0F2230" mask="url(#mask-2)"></path><path d="M57.352,197.243 L269.374,73.947 C272.626,72.858 275.84,73.947 275.84,78.272 L275.84,158.313 C275.84,160.456 274.77,161.545 273.66,162.636 L126.547,248.092 C96.282,265.404 77.899,296.759 77.899,331.366 C77.899,453.609 77.899,575.853 77.899,698.114 C77.899,732.702 96.282,764.058 126.547,781.39 L273.66,866.806 C274.77,867.897 275.84,869.026 275.84,871.167 L275.84,951.171 C275.84,955.532 272.626,956.622 269.374,955.532 L57.352,832.218 C21.655,811.653 0,773.794 0,732.702 C0,587.733 0,441.709 0,296.759 C0,255.668 21.655,217.789 57.352,197.243" id="Fill-8" fill="#0F2230" mask="url(#mask-2)"></path><path d="M466.019,753.21 L300.522,658.019 C284.281,649.37 275.615,632.077 275.615,614.782 C275.615,582.731 275.615,550.7 275.615,518.649 C275.615,486.6 275.615,454.567 275.615,422.517 C275.615,405.222 284.281,387.929 300.522,379.282 L466.019,284.089 C469.439,281.908 469.29,278.676 466.019,276.495 L384.886,229.989 L354.585,212.696 C352.442,211.605 351.352,212.696 349.171,212.696 L195.592,302.474 C170.685,316.534 155.59,342.514 155.59,370.635 C155.59,419.792 155.59,469.211 155.59,518.649 C155.59,568.089 155.59,617.509 155.59,666.665 C155.59,694.786 170.685,720.765 195.592,734.827 L349.171,824.605 C351.352,824.605 352.442,825.694 354.585,824.605 L384.886,807.31 L466.019,760.804 C469.29,758.624 469.439,755.39 466.019,753.21" id="Fill-9" fill="#199096" mask="url(#mask-2)"></path><path d="M521.754,753.21 L687.251,658.019 C703.494,649.37 712.159,632.077 712.159,614.782 C712.159,582.731 712.159,550.7 712.159,518.649 C712.159,486.6 712.159,454.567 712.159,422.517 C712.159,405.222 703.494,387.929 687.251,379.282 L521.754,284.089 C518.333,281.908 518.483,278.676 521.754,276.495 L602.887,229.989 L633.189,212.696 C635.332,211.605 636.422,212.696 638.603,212.696 L792.181,302.474 C817.088,316.534 832.183,342.514 832.183,370.635 C832.183,419.792 832.183,469.211 832.183,518.649 C832.183,568.089 832.183,617.509 832.183,666.665 C832.183,694.786 817.088,720.765 792.181,734.827 L638.603,824.605 C636.422,824.605 635.332,825.694 633.189,824.605 L602.887,807.31 L521.754,760.804 C518.483,758.624 518.333,755.39 521.754,753.21" id="Fill-10" fill="#199096" mask="url(#mask-2)"></path><path d="M3339.33,244.05 L3339.33,447.932 C3339.33,449.436 3338.11,450.657 3336.61,450.657 L3310.24,450.657 C3308.73,450.657 3307.51,449.436 3307.51,447.932 L3307.51,214.988 C3307.51,213.485 3308.73,212.262 3310.24,212.262 L3463.95,212.262 C3465.45,212.262 3466.67,213.485 3466.67,214.988 L3466.67,238.6 C3466.67,240.103 3465.45,241.324 3463.95,241.324 L3342.06,241.324 C3340.56,241.324 3339.33,242.546 3339.33,244.05" id="Fill-11" fill="#0F2230" mask="url(#mask-2)"></path><path d="M3624.2,252.716 C3616.23,245.122 3606.02,241.324 3593.58,241.324 L3535.74,241.324 C3534.23,241.324 3533.01,242.546 3533.01,244.05 L3533.01,322.644 C3533.01,324.148 3534.23,325.37 3535.74,325.37 L3593.58,325.37 C3606.02,325.37 3616.23,321.705 3624.2,314.335 C3632.15,306.967 3636.14,296.666 3636.14,283.525 C3636.14,270.611 3632.15,260.348 3624.2,252.716 Z M3662.94,308.94 C3659.82,317.399 3655.38,324.975 3649.61,331.761 C3643.86,338.603 3636.83,344.129 3628.52,348.397 C3620.23,352.664 3610.76,354.807 3600.16,354.807 L3535.74,354.807 C3534.23,354.807 3533.01,356.029 3533.01,357.533 L3533.01,447.932 C3533.01,449.436 3531.79,450.657 3530.29,450.657 L3503.91,450.657 C3502.41,450.657 3501.19,449.436 3501.19,447.932 L3501.19,214.988 C3501.19,213.485 3502.41,212.262 3503.91,212.262 L3600.16,212.262 C3611.68,212.262 3621.64,214.405 3630.08,218.654 C3638.5,222.94 3645.48,228.448 3651.01,235.29 C3656.55,242.038 3660.71,249.671 3663.47,258.092 C3666.21,266.513 3667.63,274.992 3667.63,283.525 C3667.63,292.041 3666.06,300.537 3662.94,308.94 Z" id="Fill-12" fill="#0F2230" mask="url(#mask-2)"></path><path d="M3781.86,425.394 C3777.72,432.536 3773.46,438.25 3769.06,442.5 C3764.66,446.804 3760.01,449.736 3755.05,451.335 C3750.09,452.913 3744.83,453.741 3739.3,453.741 L3715.75,453.741 C3714.24,453.741 3713.02,452.52 3713.02,451.016 L3713.02,426.371 C3713.02,424.867 3714.24,423.645 3715.75,423.645 L3733.08,423.645 C3737.91,423.645 3742.36,422.611 3746.38,420.544 C3750.45,418.456 3754.06,413.964 3757.29,407.028 L3759.13,401.99 C3759.64,400.58 3759.64,398.286 3759.11,396.877 L3690.78,214.819 C3690.26,213.408 3691.05,212.262 3692.55,212.262 L3720.33,212.262 C3721.84,212.262 3723.47,213.408 3724,214.819 L3776.09,357.438 C3776.59,358.849 3777.42,359.996 3777.91,359.996 C3778.38,359.996 3779.19,358.849 3779.72,357.438 L3832.14,214.819 C3832.67,213.408 3834.3,212.262 3835.81,212.262 L3862.2,212.262 C3863.71,212.262 3864.49,213.408 3863.95,214.819 L3794,398.043 C3790.07,409.152 3786.01,418.231 3781.86,425.394" id="Fill-13" fill="#0F2230" mask="url(#mask-2)"></path><path d="M4045.1,447.932 L4045.1,244.05 C4045.1,242.546 4043.88,241.324 4042.38,241.324 L3936.08,241.324 C3934.57,241.324 3933.35,242.546 3933.35,244.05 L3933.35,447.932 C3933.35,449.436 3932.13,450.657 3930.63,450.657 L3904.25,450.657 C3902.75,450.657 3901.53,449.436 3901.53,447.932 L3901.53,214.988 C3901.53,213.485 3902.75,212.262 3904.25,212.262 L4074.9,212.262 C4076.4,212.262 4077.63,213.485 4077.63,214.988 L4077.63,447.932 C4077.63,449.436 4076.4,450.657 4074.9,450.657 L4047.83,450.657 C4046.33,450.657 4045.1,449.436 4045.1,447.932" id="Fill-14" fill="#0F2230" mask="url(#mask-2)"></path><path d="M4270.21,447.932 L4270.21,244.05 C4270.21,242.546 4268.99,241.324 4267.48,241.324 L4161.2,241.324 C4159.7,241.324 4158.47,242.546 4158.47,244.05 L4158.47,447.932 C4158.47,449.436 4157.25,450.657 4155.75,450.657 L4129.38,450.657 C4127.87,450.657 4126.649,449.436 4126.649,447.932 L4126.649,214.988 C4126.649,213.485 4127.87,212.262 4129.38,212.262 L4300.02,212.262 C4301.53,212.262 4302.75,213.485 4302.75,214.988 L4302.75,447.932 C4302.75,449.436 4301.53,450.657 4300.02,450.657 L4272.94,450.657 C4271.43,450.657 4270.21,449.436 4270.21,447.932" id="Fill-15" fill="#0F2230" mask="url(#mask-2)"></path><path d="M4438.319,258.449 L4421.85,311.195 L4403.65,365.334 C4403.19,366.762 4404.01,367.928 4405.52,367.928 L4474.48,367.928 C4475.99,367.928 4476.82,366.762 4476.35,365.334 L4458.17,311.195 L4441.38,258.449 C4440.93,257.02 4440.24,255.855 4439.84,255.855 C4439.45,255.855 4438.77,257.02 4438.319,258.449 Z M4505.03,448.082 L4488.149,399.584 C4487.64,398.155 4486.03,397.009 4484.52,397.009 L4395.16,397.009 C4393.649,397.009 4392.04,398.155 4391.55,399.584 L4374.97,448.082 C4374.48,449.512 4372.87,450.657 4371.359,450.657 L4343.6,450.657 C4342.09,450.657 4341.27,449.512 4341.77,448.082 L4423.02,214.837 C4423.52,213.408 4425.14,212.262 4426.64,212.262 L4453.36,212.262 C4454.86,212.262 4456.48,213.408 4456.98,214.837 L4538.63,448.082 C4539.13,449.512 4538.3,450.657 4536.8,450.657 L4508.66,450.657 C4507.16,450.657 4505.54,449.512 4505.03,448.082 Z" id="Fill-16" fill="#0F2230" mask="url(#mask-2)"></path><path d="M3306.12,822.312 L3306.12,589.368 C3306.12,587.864 3307.34,586.642 3308.85,586.642 L3335.24,586.642 C3336.74,586.642 3337.96,587.864 3337.96,589.368 L3337.96,686.685 C3337.96,688.188 3339.19,689.411 3340.69,689.411 L3375,689.411 C3378.66,689.411 3382.59,689.071 3386.73,688.378 C3390.9,687.661 3395,686.101 3399,683.696 C3403.06,681.29 3406.82,677.774 3410.26,673.149 C3413.72,668.526 3416.75,662.321 3419.27,654.446 L3440.22,589.237 C3440.68,587.808 3442.27,586.642 3443.78,586.642 L3468.8,586.642 C3470.3,586.642 3471.17,587.808 3470.71,589.255 L3450.05,656.177 C3446.37,667.925 3441.63,677.774 3435.88,685.577 C3430.77,692.532 3425.05,697.382 3418.72,700.183 C3417.33,700.784 3417.33,701.554 3418.72,702.081 C3427.42,705.425 3434.29,710.839 3439.32,718.302 C3444.87,726.48 3449.38,736.462 3452.84,748.192 L3474.89,822.425 C3475.34,823.872 3474.46,825.036 3472.95,825.036 L3445.17,825.036 C3443.67,825.036 3442.1,823.872 3441.69,822.425 L3421.71,753.755 C3419.36,745.917 3416.58,739.526 3413.21,734.563 C3409.87,729.62 3406.26,725.86 3402.31,723.302 C3398.4,720.784 3394.24,719.036 3389.87,718.134 C3385.49,717.192 3381.11,716.743 3376.73,716.743 L3340.69,716.743 C3339.19,716.743 3337.96,717.964 3337.96,719.468 L3337.96,822.312 C3337.96,823.815 3336.74,825.036 3335.24,825.036 L3308.85,825.036 C3307.34,825.036 3306.12,823.815 3306.12,822.312" id="Fill-17" fill="#0F2230" mask="url(#mask-2)"></path><path d="M3651.06,671.063 C3651.06,661.382 3649.58,653.073 3646.59,646.157 C3643.6,639.22 3639.57,633.544 3634.52,629.05 C3629.45,624.538 3623.52,621.249 3616.75,619.181 C3609.95,617.095 3602.81,616.042 3595.18,616.042 C3587.62,616.042 3580.42,617.095 3573.61,619.181 C3566.85,621.249 3560.98,624.538 3556.04,629.05 C3551.1,633.544 3547.15,639.22 3544.16,646.157 C3541.17,653.073 3539.65,661.382 3539.65,671.063 L3539.65,740.956 C3539.65,750.636 3541.17,758.964 3544.16,765.882 C3547.15,772.798 3551.15,778.419 3556.23,782.798 C3561.28,787.196 3567.2,790.431 3573.97,792.519 C3580.76,794.585 3587.83,795.655 3595.18,795.655 C3602.81,795.655 3609.91,794.585 3616.57,792.519 C3623.26,790.431 3629.16,787.196 3634.33,782.798 C3639.52,778.419 3643.6,772.798 3646.59,765.882 C3649.58,758.964 3651.06,750.636 3651.06,740.956 L3651.06,671.063 Z M3683.58,744.771 C3683.58,756.989 3681.33,768.079 3676.83,777.985 C3672.3,787.894 3666.08,796.333 3658.11,803.269 C3650.12,810.169 3640.78,815.524 3630.03,819.323 C3619.28,823.138 3607.68,825.036 3595.18,825.036 C3582.24,825.036 3570.32,823.138 3559.48,819.323 C3548.62,815.524 3539.31,810.169 3531.58,803.269 C3523.84,796.333 3517.84,787.894 3513.54,777.985 C3509.27,768.079 3507.14,756.989 3507.14,744.771 L3507.14,667.286 C3507.14,655.274 3509.27,644.313 3513.54,634.388 C3517.84,624.501 3523.84,616.005 3531.58,608.974 C3539.31,601.962 3548.62,596.454 3559.48,592.546 C3570.32,588.616 3582.24,586.642 3595.18,586.642 C3607.92,586.642 3619.71,588.616 3630.54,592.546 C3641.42,596.454 3650.8,601.962 3658.66,608.974 C3666.48,616.005 3672.6,624.501 3676.98,634.388 C3681.37,644.313 3683.58,655.274 3683.58,667.286 L3683.58,744.771 Z" id="Fill-18" fill="#0F2230" mask="url(#mask-2)"></path><path d="M3842.82,744.714 L3871.07,683.864 L3917.28,589.105 C3917.96,587.733 3919.7,586.642 3921.21,586.642 L3945.15,586.642 C3946.66,586.642 3947.88,587.864 3947.88,589.368 L3947.88,822.312 C3947.88,823.815 3946.66,825.036 3945.15,825.036 L3918.78,825.036 C3917.28,825.036 3916.06,823.815 3916.06,822.312 L3916.06,665.481 C3916.06,663.978 3915.68,662.755 3915.21,662.755 C3914.72,662.755 3913.82,663.864 3913.18,665.218 L3892.52,708.79 L3853.61,787.31 C3852.95,788.663 3851.19,789.753 3849.68,789.753 L3831.24,789.753 C3829.74,789.753 3827.95,788.663 3827.27,787.329 L3790.47,715.353 L3765.69,665.198 C3765.03,663.845 3764.11,662.755 3763.62,662.755 C3763.17,662.755 3762.78,663.978 3762.78,665.481 L3762.78,822.312 C3762.78,823.815 3761.56,825.036 3760.05,825.036 L3733.66,825.036 C3732.16,825.036 3730.93,823.815 3730.93,822.312 L3730.93,589.368 C3730.93,587.864 3732.16,586.642 3733.66,586.642 L3758.64,586.642 C3760.15,586.642 3761.91,587.733 3762.57,589.087 L3809.49,683.864 L3838.42,744.733 C3839.06,746.087 3840.06,747.196 3840.62,747.196 C3841.2,747.196 3842.18,746.087 3842.82,744.714" id="Fill-19" fill="#0F2230" mask="url(#mask-2)"></path><path d="M4141.14,822.312 L4141.14,618.45 C4141.14,616.944 4139.92,615.724 4138.42,615.724 L4032.13,615.724 C4030.63,615.724 4029.41,616.944 4029.41,618.45 L4029.41,822.312 C4029.41,823.815 4028.19,825.036 4026.68,825.036 L4000.31,825.036 C3998.8,825.036 3997.58,823.815 3997.58,822.312 L3997.58,589.368 C3997.58,587.864 3998.8,586.642 4000.31,586.642 L4170.96,586.642 C4172.46,586.642 4173.68,587.864 4173.68,589.368 L4173.68,822.312 C4173.68,823.815 4172.46,825.036 4170.96,825.036 L4143.87,825.036 C4142.36,825.036 4141.14,823.815 4141.14,822.312" id="Fill-20" fill="#0F2230" mask="url(#mask-2)"></path><path d="M4309.25,632.829 L4292.79,685.577 L4274.57,739.751 C4274.1,741.181 4274.93,742.345 4276.43,742.345 L4345.42,742.345 C4346.92,742.345 4347.75,741.181 4347.28,739.751 L4329.08,685.577 L4312.3,632.829 C4311.85,631.399 4311.149,630.233 4310.76,630.233 C4310.38,630.233 4309.7,631.399 4309.25,632.829 Z M4375.95,822.462 L4359.07,773.983 C4358.56,772.554 4356.94,771.407 4355.44,771.407 L4266.05,771.407 C4264.55,771.407 4262.93,772.573 4262.45,773.983 L4245.899,822.462 C4245.41,823.892 4243.8,825.036 4242.29,825.036 L4214.53,825.036 C4213.03,825.036 4212.2,823.892 4212.71,822.462 L4293.93,589.218 C4294.44,587.79 4296.06,586.642 4297.56,586.642 L4324.27,586.642 C4325.78,586.642 4327.39,587.79 4327.9,589.218 L4409.5,822.462 C4410.01,823.892 4409.18,825.036 4407.68,825.036 L4379.58,825.036 C4378.07,825.036 4376.46,823.892 4375.95,822.462 Z" id="Fill-21" fill="#0F2230" mask="url(#mask-2)"></path><path d="M4591.63,822.312 L4591.63,721.517 C4591.63,720.013 4590.41,718.792 4588.91,718.792 L4482.59,718.792 C4481.08,718.792 4479.86,720.013 4479.86,721.517 L4479.86,822.312 C4479.86,823.815 4478.64,825.036 4477.14,825.036 L4450.74,825.036 C4449.24,825.036 4448.02,823.815 4448.02,822.312 L4448.02,589.368 C4448.02,587.864 4449.24,586.642 4450.74,586.642 L4477.14,586.642 C4478.64,586.642 4479.86,587.864 4479.86,589.368 L4479.86,687.042 C4479.86,688.546 4481.08,689.767 4482.59,689.767 L4588.91,689.767 C4590.41,689.767 4591.63,688.546 4591.63,687.042 L4591.63,589.368 C4591.63,587.864 4592.86,586.642 4594.36,586.642 L4621.43,586.642 C4622.93,586.642 4624.15,587.864 4624.15,589.368 L4624.15,822.312 C4624.15,823.815 4622.93,825.036 4621.43,825.036 L4594.36,825.036 C4592.86,825.036 4591.63,823.815 4591.63,822.312" id="Fill-22" fill="#0F2230" mask="url(#mask-2)"></path><path d="M4820.74,642.565 L4787.59,695.651 L4705.7,822.743 C4704.87,824.003 4702.99,825.036 4701.49,825.036 L4676.85,825.036 C4675.34,825.036 4674.12,823.815 4674.12,822.312 L4674.12,589.368 C4674.12,587.864 4675.34,586.642 4676.85,586.642 L4703.24,586.642 C4704.74,586.642 4705.96,587.864 4705.96,589.368 L4705.96,766.276 C4705.96,767.778 4706.51,769.001 4707.17,769.001 C4707.84,769.001 4709.05,767.966 4709.86,766.708 L4738.84,721.235 L4824.18,588.937 C4825.01,587.677 4826.89,586.642 4828.39,586.642 L4853.71,586.642 C4855.22,586.642 4856.44,587.864 4856.44,589.368 L4856.44,822.312 C4856.44,823.815 4855.22,825.036 4853.71,825.036 L4827.34,825.036 C4825.84,825.036 4824.62,823.815 4824.62,822.312 L4824.62,642.98 C4824.62,641.476 4824.07,640.253 4823.41,640.253 C4822.74,640.253 4821.55,641.288 4820.74,642.565" id="Fill-23" fill="#0F2230" mask="url(#mask-2)"></path><path d="M4971.05,534.327 C4971.41,535.813 4971.95,537.335 4972.67,538.897 C4973.79,541.472 4975.43,543.802 4977.5,546.021 C4979.57,548.181 4982.11,549.985 4985.13,551.358 C4988.08,552.751 4991.45,553.444 4995.149,553.444 C4999.29,553.444 5002.91,552.751 5006.05,551.358 C5009.17,549.985 5011.71,548.181 5013.82,546.021 C5015.939,543.802 5017.46,541.472 5018.5,538.897 C5019.141,537.335 5019.59,535.831 5019.83,534.366 C5020.09,532.88 5021.3,531.64 5022.8,531.64 L5041.9,531.64 C5043.4,531.64 5044.51,532.86 5044.29,534.366 C5043.74,538.181 5042.8,542.187 5041.51,546.341 C5039.89,551.509 5037.2,556.323 5033.37,560.7 C5029.55,565.101 5024.609,568.765 5018.5,571.772 C5012.391,574.78 5004.59,576.247 4995.149,576.247 C4985.689,576.247 4977.8,574.78 4971.45,571.772 C4965.11,568.765 4960.02,565.101 4956.2,560.7 C4952.42,556.323 4949.62,551.509 4947.91,546.341 C4946.52,542.187 4945.69,538.2 4945.43,534.384 C4945.33,532.88 4946.56,531.64 4948.06,531.64 L4967.86,531.64 C4969.36,531.64 4970.7,532.86 4971.05,534.327 Z M5053.88,642.565 L5020.729,695.651 L4938.85,822.743 C4938.029,824.003 4936.14,825.036 4934.64,825.036 L4910,825.036 C4908.49,825.036 4907.27,823.815 4907.27,822.312 L4907.27,589.368 C4907.27,587.864 4908.49,586.642 4910,586.642 L4936.37,586.642 C4937.88,586.642 4939.1,587.864 4939.1,589.368 L4939.1,766.276 C4939.1,767.778 4939.641,769.001 4940.3,769.001 C4940.97,769.001 4942.18,767.966 4942.99,766.708 L4971.99,721.235 L5057.34,588.937 C5058.16,587.677 5060.04,586.642 5061.55,586.642 L5086.88,586.642 C5088.39,586.642 5089.61,587.864 5089.61,589.368 L5089.61,822.312 C5089.61,823.815 5088.39,825.036 5086.88,825.036 L5060.49,825.036 C5058.99,825.036 5057.77,823.815 5057.77,822.312 L5057.77,642.98 C5057.77,641.476 5057.22,640.253 5056.54,640.253 C5055.87,640.253 5054.68,641.288 5053.88,642.565 Z" id="Fill-24" fill="#0F2230" mask="url(#mask-2)"></path></g></g></g></svg>